# xmcd
#
# Track frame offsets:
#	150
#	15326
#	33172
#	55634
#	75311
#	94346
#	113684
#	134855
#	153725
#	170693
#	191643
#	213763
#	236778
#	257125
#	272025
#	286647
#	302811
#	325313
#	343434
#
# Disc length: 4799 seconds
#
# Revision: 3
# Processed by: cddbd v1.4PL0 Copyright (c) Steve Scherf et al.
# Submitted via: EasyCDDAExtractor 4.5.0.2
#
DISCID=1012bd13
DTITLE=Дискотека Авария - Заколебал Ты
DYEAR=2001
DGENRE=Blues
TTITLE0=Заколебал Ты
TTITLE1=Пей пиво!
TTITLE2=Влечение (DA vs. Жуки)
TTITLE3=Давай, Авария
TTITLE4=Чао, Бамбино! (DA&Блестящие)
TTITLE5=Двигай-Двигай
TTITLE6=Кинула (DA&Ляпис Трубецкой)
TTITLE7=Забудем это
TTITLE8=Некуда деваться
TTITLE9=Дельфины (Мумий Троль fest. DA)
TTITLE10=Рэп для моей девчонки
TTITLE11=MF (DA&Green Gray)
TTITLE12=Труба зовет!
TTITLE13=Не плач (DA&В.Пресняков)
TTITLE14=Начни и кончи
TTITLE15=Кострома (DA&Иван Купала)
TTITLE16=Новогодняя
TTITLE17=Песня снегурочки
TTITLE18=Девчонка (Мумий Троль fest. DA)
EXTD=ID3G:   0\n
EXTT0=
EXTT1=
EXTT2=
EXTT3=
EXTT4=
EXTT5=
EXTT6=
EXTT7=
EXTT8=
EXTT9=
EXTT10=
EXTT11=
EXTT12=
EXTT13=
EXTT14=
EXTT15=
EXTT16=
EXTT17=
EXTT18=
PLAYORDER=
